<svg width="51" height="48" fill="none" xmlns="http://www.w3.org/2000/svg"><mask id="path-1-inside-1" fill="#fff"><path fill-rule="evenodd" clip-rule="evenodd" d="M47.416 20.31c-.886-2.726-3.25-5.09-7.978-9.818l-1.93-1.93C32.78 3.834 30.416 1.47 27.689.584a11.94 11.94 0 00-7.378 0c-2.727.886-5.09 3.25-9.819 7.978l-1.93 1.93C3.834 15.22 1.47 17.584.584 20.311a11.94 11.94 0 000 7.378c.886 2.727 3.25 5.09 7.978 9.819l1.93 1.93c4.728 4.728 7.092 7.092 9.819 7.978 2.398.779 4.98.779 7.378 0 2.727-.886 5.09-3.25 9.819-7.978l1.93-1.93c4.728-4.728 7.092-7.092 7.978-9.819.779-2.398.779-4.98 0-7.378z"/></mask><path d="M39.438 10.492l-2.829 2.828 2.829-2.828zm7.978 9.819l-3.805 1.236 3.805-1.236zM37.508 8.562l2.828-2.828-2.828 2.828zM27.689.584L26.453 4.39 27.69.584zm-7.378 0L19.075-3.22 20.31.584zm-9.819 7.978L7.664 5.734l2.828 2.828zm-1.93 1.93l2.829 2.828-2.829-2.828zM.584 20.311l3.805 1.236L.584 20.31zm0 7.378l3.805-1.236L.584 27.69zm7.978 9.819l2.829-2.829-2.829 2.829zm1.93 1.93l-2.828 2.828 2.828-2.828zm9.819 7.978l-1.236 3.804 1.236-3.804zm7.378 0l-1.236-3.805 1.236 3.805zm9.819-7.978l2.828 2.828-2.828-2.828zm1.93-1.93l-2.829-2.829 2.829 2.829zm7.978-9.819l3.804 1.236-3.804-1.236zM36.609 13.32c2.41 2.411 4.047 4.052 5.21 5.42 1.131 1.334 1.578 2.146 1.792 2.807l7.609-2.473c-.671-2.065-1.85-3.799-3.303-5.51-1.423-1.677-3.334-3.583-5.651-5.9l-5.657 5.656zm-1.93-1.93l1.93 1.93 5.657-5.656-1.93-1.93-5.657 5.657zm-8.226-7c.661.214 1.473.66 2.806 1.793 1.37 1.162 3.01 2.798 5.42 5.209l5.657-5.657c-2.317-2.317-4.223-4.228-5.9-5.65-1.711-1.454-3.445-2.633-5.51-3.304L26.453 4.39zm-4.906 0a7.94 7.94 0 014.906 0l2.473-7.609a15.94 15.94 0 00-9.851 0l2.472 7.609zm-8.227 7c2.411-2.41 4.052-4.047 5.42-5.21 1.334-1.131 2.146-1.578 2.807-1.792L19.074-3.22c-2.065.671-3.799 1.85-5.51 3.303-1.677 1.423-3.583 3.334-5.9 5.651l5.656 5.657zm-1.93 1.93l1.93-1.93-5.656-5.657-1.93 1.93 5.657 5.656zm-7 8.227c.214-.661.66-1.473 1.793-2.806 1.162-1.37 2.798-3.01 5.209-5.42L5.734 7.663c-2.317 2.317-4.228 4.223-5.65 5.9-1.454 1.711-2.633 3.445-3.304 5.51l7.609 2.473zm0 4.906a7.94 7.94 0 010-4.906l-7.609-2.473a15.94 15.94 0 000 9.851l7.609-2.472zm7.002 8.226c-2.41-2.41-4.047-4.05-5.21-5.42-1.131-1.333-1.578-2.145-1.792-2.806l-7.609 2.473c.671 2.065 1.85 3.799 3.303 5.51 1.423 1.677 3.334 3.583 5.651 5.9l5.657-5.657zm1.93 1.93l-1.93-1.93-5.657 5.657 1.93 1.93 5.656-5.657zm8.226 7.002c-.661-.214-1.473-.66-2.806-1.793-1.37-1.162-3.01-2.798-5.42-5.209l-5.657 5.657c2.317 2.317 4.223 4.228 5.9 5.65 1.711 1.454 3.445 2.633 5.51 3.304l2.473-7.609zm4.906 0a7.94 7.94 0 01-4.906 0l-2.473 7.609a15.94 15.94 0 009.851 0l-2.472-7.609zm8.226-7.002c-2.41 2.41-4.05 4.047-5.42 5.21-1.333 1.131-2.145 1.578-2.806 1.792l2.473 7.609c2.065-.671 3.799-1.85 5.51-3.303 1.677-1.423 3.583-3.334 5.9-5.651l-5.657-5.657zm1.93-1.93l-1.93 1.93 5.657 5.657 1.93-1.93-5.657-5.657zm7.002-8.226c-.214.661-.66 1.473-1.793 2.806-1.162 1.37-2.798 3.01-5.209 5.42l5.657 5.657c2.317-2.317 4.228-4.223 5.65-5.9 1.454-1.711 2.633-3.445 3.304-5.51l-7.609-2.473zm0-4.906a7.94 7.94 0 010 4.906l7.609 2.473a15.94 15.94 0 000-9.851l-7.609 2.472z" fill="#00B956" mask="url(#path-1-inside-1)"/><path d="M46.963 10.856a4.006 4.006 0 00-5.665-5.665L24.07 22.418l-5.191-5.191a4.006 4.006 0 00-5.665 5.665l8.023 8.024a4.006 4.006 0 005.666 0l20.059-20.06z" fill="#1939DE" stroke="#fff" stroke-width="4" stroke-linecap="round" stroke-linejoin="round"/></svg>